<svg width="20" height="19" viewBox="0 0 20 19" fill="none" xmlns="http://www.w3.org/2000/svg">
<path fill-rule="evenodd" clip-rule="evenodd" d="M19.7778 8.54736L10 0L0.222168 8.54736C0.0903316 8.66455 0.0170896 8.81104 0.00244136 8.98682C-0.0122069 9.1626 0.0390624 9.31274 0.15625 9.43726C0.273437 9.56177 0.41626 9.63135 0.584717 9.646C0.753173 9.66065 0.90332 9.60938 1.03516 9.49219L10 1.64795L18.9648 9.49219C19.0674 9.59473 19.1846 9.646 19.3164 9.646C19.5361 9.646 19.7119 9.58008 19.8438 9.44824C19.9609 9.31641 20.0122 9.1626 19.9976 8.98682C19.9829 8.81104 19.9097 8.66455 19.7778 8.54736ZM16.2402 8.74512V17.4902H3.75977L3.73779 8.72315L2.50732 9.82178V18.1274C2.50732 18.2886 2.56592 18.4314 2.68311 18.5559C2.80029 18.6804 2.94678 18.7427 3.12256 18.7427H16.8774C17.0532 18.7427 17.1997 18.6804 17.3169 18.5559C17.4341 18.4314 17.4927 18.2886 17.4927 18.1274V9.82178L16.2402 8.74512Z" fill="#E20074"/>
</svg>
