<svg width="68" height="34" viewBox="0 0 68 34" fill="none" xmlns="http://www.w3.org/2000/svg">
<path d="M0.200012 22.4V15.7H6.90001V22.4H0.200012ZM20.7 22.4V15.7H27.4V22.4H20.7ZM40.9 22.4V15.7H47.6V22.4H40.9ZM61.1 22.4V15.7H67.8V22.4H61.1Z" fill="#E20074"/>
<path d="M27.1 0.399994H0.500012L0.200012 12.1L2.00001 12.4C2.30001 8.89999 3.20001 6.39999 4.70001 4.69999C6.20001 2.99999 8.40001 1.99999 11.1 1.99999V26.6C11.1 28.7 10.8 30.1 10.2 30.8C9.70001 31.3 8.80001 31.7 7.50001 31.8H5.60001V33.7H22V31.8H20.1C18.8 31.7 17.9 31.3 17.4 30.8C16.8 30.2 16.5 28.8 16.5 26.6V1.99999C19.3 2.09999 21.4 2.99999 23 4.69999C24.5 6.39999 25.4 8.89999 25.7 12.4L27.5 12.1L27.1 0.399994Z" fill="#E20074"/>
</svg>
