<svg width="19" height="18" viewBox="0 0 19 18" fill="none" xmlns="http://www.w3.org/2000/svg">
<path fill-rule="evenodd" clip-rule="evenodd" d="M6.6623 11.4687C7.84785 12.6492 11.8883 16.5 13.9787 16.5C14.0378 16.4968 14.0967 16.4899 14.1549 16.4792C14.6674 16.4389 15.1519 16.2297 15.5316 15.8845L16.3767 15.0429C16.7633 14.6278 16.7633 13.9862 16.3767 13.571L13.2052 10.4309C12.7883 10.046 12.1439 10.046 11.727 10.4309L11.1298 11.0256C10.359 10.4731 9.63669 9.85632 8.9707 9.18203C8.29354 8.51887 7.67415 7.79965 7.1192 7.03214L7.71646 6.43742C8.11237 6.02022 8.11237 5.36783 7.71646 4.95063L4.56593 1.79567C4.14695 1.40144 3.49177 1.40144 3.07279 1.79567L2.43969 2.42607C1.99652 2.90171 1.72812 3.51274 1.67819 4.15966C1.44825 5.97057 4.70031 9.51804 6.6623 11.4687ZM3.72081 2.42904C3.75198 2.40945 3.78854 2.40009 3.82533 2.40228L3.8104 2.39931C3.84819 2.39648 3.88589 2.40587 3.91791 2.42607L7.07441 5.584C7.09389 5.61512 7.10328 5.65146 7.10128 5.68808C7.10348 5.72472 7.09408 5.76112 7.07441 5.79215L5.99935 6.88048L6.17852 7.17784C6.80408 8.12627 7.53429 9.00199 8.35552 9.78864C9.14422 10.6075 10.0227 11.3356 10.9745 11.9594L11.2731 12.1378L12.3661 11.0494C12.3973 11.0298 12.4338 11.0205 12.4706 11.0227C12.5074 11.0207 12.5439 11.03 12.5751 11.0494L15.7346 14.2014C15.7713 14.2671 15.7713 14.3469 15.7346 14.4125L14.8955 15.2481C14.6605 15.447 14.3695 15.5685 14.0623 15.596H13.9787C13.035 15.596 10.6042 14.133 7.29539 10.8383C3.64914 7.21947 2.46956 5.03092 2.56811 4.2459C2.59928 3.80468 2.77681 3.38628 3.07279 3.05647L3.72081 2.42904Z" fill="white"/>
</svg>
