<svg width="40" height="40" viewBox="0 0 40 40" fill="none" xmlns="http://www.w3.org/2000/svg">
<path fill-rule="evenodd" clip-rule="evenodd" d="M14.4348 25.486C17.0694 28.1094 26.0481 36.6667 30.6935 36.6667C30.8248 36.6596 30.9556 36.6442 31.085 36.6204C32.224 36.5309 33.3005 36.0659 34.1443 35.2988L36.0223 33.4288C36.8814 32.5063 36.8814 31.0804 36.0223 30.1578L28.9747 23.1798C28.0482 22.3244 26.6162 22.3244 25.6898 23.1798L24.3625 24.5014C22.6496 23.2735 21.0446 21.9029 19.5646 20.4045C18.0598 18.9308 16.6834 17.3326 15.4501 15.627L16.7774 14.3054C17.6572 13.3783 17.6572 11.9285 16.7774 11.0014L9.77621 3.99037C8.84514 3.11431 7.38918 3.11431 6.45812 3.99037L5.05124 5.39126C4.06641 6.44824 3.46996 7.80609 3.35902 9.24369C2.84803 13.2679 10.0748 21.1512 14.4348 25.486ZM7.89817 5.39786C7.96744 5.35434 8.04867 5.33354 8.13043 5.33839L8.09725 5.33178C8.18124 5.32551 8.26502 5.34636 8.33616 5.39126L15.3506 12.4089C15.3939 12.478 15.4148 12.5588 15.4103 12.6402C15.4152 12.7216 15.3943 12.8025 15.3506 12.8715L12.9616 15.29L13.3597 15.9508C14.7499 18.0584 16.3726 20.0044 18.1975 21.7525C19.9502 23.5722 21.9024 25.1902 24.0175 26.5763L24.6811 26.9728L27.1099 24.5543C27.1792 24.5108 27.2604 24.49 27.3422 24.4948C27.4239 24.4904 27.505 24.5112 27.5745 24.5543L34.5955 31.5587C34.6771 31.7046 34.6771 31.882 34.5955 32.0279L32.7308 33.8847C32.2086 34.3266 31.5618 34.5967 30.8793 34.6578H30.6935C28.5964 34.6578 23.1946 31.4067 15.8417 24.0851C7.7389 16.0433 5.11761 11.1798 5.3366 9.43532C5.40588 8.45483 5.80039 7.52507 6.45812 6.79214L7.89817 5.39786Z" fill="#E20074"/>
</svg>
